# xmcd
#
# Track frame offsets:
#	182
#	16027
#	27790
#	41012
#	54017
#	67370
#	80280
#	94185
#	108422
#	124920
#	137572
#	150912
#	164655
#	175502
#	186682
#	198655
#
# Disc length: 2877
#
# Revision: 1
# Processed by: cddbd v1.5.1PL0 Copyright (c) Steve Scherf et al.
# Submitted via: VisiTrax 2.9.3.171 - For more info visit www.synapsa.com
# Normalized: r0:DSETVAR1
#
DISCID=d20b3b10
DTITLE=Various Artist - Honky Tonkin'
DYEAR=1900
DGENRE=Country
TTITLE0=Various Artist - A Jukebox With A Country Song
TTITLE1=Dwight Yoakum - It Only Hurts When I Cry
TTITLE2=Various Artist - Hard Livin'
TTITLE3=Kentucky Headhunters - Dumas Walker
TTITLE4=Various Artist - Baby's Got Her Blue Jeans On
TTITLE5=Various Artist - Tight Fittin' Jeans
TTITLE6=Various Artist - Brother Jukebox
TTITLE7=Various Artist - Billy The Kid
TTITLE8=Various Artist - Beer and Bones
TTITLE9=Aaron Tippin - There Ain't Nothin Wrong With The Radio
TTITLE10=Various Artist - Cadillac Style
TTITLE11=Various Artist - Honky Tonk Blues
TTITLE12=Various Artist - Wine Me Up
TTITLE13=Various Artist - Set 'em Up Joe
TTITLE14=Various Artist - Hillbilly Rock
TTITLE15=Various Artist - Save The Last Dance For Me
EXTD=
EXTT0=
EXTT1=
EXTT2=
EXTT3=
EXTT4=
EXTT5=
EXTT6=
EXTT7=
EXTT8=
EXTT9=
EXTT10=
EXTT11=
EXTT12=
EXTT13=
EXTT14=
EXTT15=
PLAYORDER=
